<?xml version="1.0" encoding="utf-8"?>
<!-- Generator: Adobe Illustrator 24.0.2, SVG Export Plug-In . SVG Version: 6.00 Build 0)  -->
<svg version="1.1" xmlns="http://www.w3.org/2000/svg" xmlns:xlink="http://www.w3.org/1999/xlink" x="0px" y="0px"
	 viewBox="0 0 184.19 123.79" style="enable-background:new 0 0 184.19 123.79;" xml:space="preserve">
<style type="text/css">
	.st0{fill:#FFFFFF;}
	.st1{fill:#010202;}
</style>
<g id="Laag_1">
	<polygon class="st0" points="161.91,123.17 -0.18,123.17 21.4,0.79 183.49,0.79 	"/>
	<path class="st1" d="M159.28,42.2l2.57-14.58h0l1.73-9.81h-59.84l-7.79,44.18h-8.6l7.79-44.18H35.32l-2.57,14.58H78l-5.22,29.6
		H27.53l-7.79,44.18h59.83l5.22-29.6h8.6l-5.22,29.6H148l7.79-44.18h-45.25l5.22-29.6h30.02l-1.73,9.82H159.28z M67.56,91.57H36.89
		l2.65-15.01h30.67L67.56,91.57z M138.64,76.56l-2.65,15.01h-30.67l2.65-15.01H138.64z"/>
</g>
<g id="Laag_2">
</g>
<g id="Laag_3">
</g>
</svg>
