<?xml version="1.0" encoding="utf-8"?>
<!-- Generator: Adobe Illustrator 24.0.2, SVG Export Plug-In . SVG Version: 6.00 Build 0)  -->
<svg version="1.1" id="Laag_1" xmlns="http://www.w3.org/2000/svg" xmlns:xlink="http://www.w3.org/1999/xlink" x="0px" y="0px"
	 viewBox="0 0 24 24" style="enable-background:new 0 0 24 24;" xml:space="preserve">
<style type="text/css">
	.st0{fill:#FFFFFF;}
</style>
<title>Laravel Nova icon</title>
<path class="st0" d="M21.3,4.3C16.6,0.4,9.5,0.6,5,5.1c-3,2.9-3,7.7-0.1,10.7c0,0,0.1,0.1,0.1,0.1c3,3,7.9,3,10.9,0
	c1.3-1.3,1.3-3.3,0-4.6c0,0,0,0,0,0c-1.3-1.3-3.4-1.3-4.7,0c-0.4,0.4-1.1,0.4-1.6,0c-0.4-0.4-0.4-1.1,0-1.5c0,0,0,0,0,0
	c2.2-2.1,5.6-2.1,7.8,0c2.1,2.1,2.2,5.5,0.1,7.6c0,0,0,0-0.1,0.1c-3.9,3.8-10.2,3.8-14.1,0c-3.8-3.8-3.9-9.9-0.1-13.8
	c0,0,0.1-0.1,0.1-0.1C5.6,1.4,8.6,0,12,0C15.8,0,19.1,1.7,21.3,4.3z M20.6,20.5C18.3,22.7,15.2,24,12,24c-3.6,0-7-1.6-9.3-4.3
	c4.8,3.9,11.9,3.7,16.4-0.7c3-2.9,3-7.7,0.1-10.7c0,0-0.1-0.1-0.1-0.1c-3-3-7.9-3-10.9,0c-1.3,1.3-1.3,3.3,0,4.6c0,0,0,0,0,0
	c1.3,1.3,3.4,1.3,4.7,0c0.4-0.4,1.1-0.4,1.6,0c0.4,0.4,0.4,1.1,0,1.5c0,0,0,0,0,0c-2.2,2.1-5.6,2.1-7.8,0c-2.1-2.1-2.2-5.5-0.1-7.6
	c0,0,0,0,0.1-0.1c3.9-3.8,10.2-3.8,14.1,0C24.4,10.4,24.5,16.5,20.6,20.5C20.7,20.4,20.6,20.4,20.6,20.5z"/>
</svg>
