<?xml version="1.0" encoding="utf-8"?>
<!-- Generator: Adobe Illustrator 23.0.4, SVG Export Plug-In . SVG Version: 6.00 Build 0)  -->
<svg version="1.1" id="Logo" xmlns="http://www.w3.org/2000/svg" xmlns:xlink="http://www.w3.org/1999/xlink" x="0px" y="0px"
	 viewBox="0 0 498.7 498.7" style="enable-background:new 0 0 498.7 498.7;" xml:space="preserve">
<style type="text/css">
	.st0{fill:#FFFFFF;}
</style>
<title>linkedin</title>
<path class="st0" d="M461.8,0h-425C16.5,0,0,16.1,0,35.9v426.8c0,19.9,16.5,36,36.8,36h425c20.3,0,36.9-16.1,36.9-36V35.9
	C498.7,16.1,482.2,0,461.8,0z M147.9,425h-74V187h74V425z M110.9,154.5c-23.7,0-42.9-19.2-42.9-42.9s19.2-42.9,42.9-42.9
	s42.9,19.2,42.9,42.9c0,0,0,0,0,0C153.8,135.2,134.6,154.4,110.9,154.5L110.9,154.5z M425,425h-73.9V309.2
	c0-27.6-0.5-63.1-38.4-63.1c-38.5,0-44.4,30.1-44.4,61.1V425h-73.9V187h70.9v32.5h1c9.9-18.7,34-38.4,70-38.4
	c74.9,0,88.7,49.3,88.7,113.4V425z"/>
</svg>
