<?xml version="1.0" encoding="utf-8"?>
<!-- Generator: Adobe Illustrator 24.0.2, SVG Export Plug-In . SVG Version: 6.00 Build 0)  -->
<svg version="1.1" id="Laag_1" xmlns="http://www.w3.org/2000/svg" xmlns:xlink="http://www.w3.org/1999/xlink" x="0px" y="0px"
	 viewBox="0 0 3896.7 882.2" style="enable-background:new 0 0 3896.7 882.2;" xml:space="preserve">
<style type="text/css">
	.st0{fill-rule:evenodd;clip-rule:evenodd;fill:#1A1918;}
	.st1{fill-rule:evenodd;clip-rule:evenodd;fill:#21609B;}
</style>
<g>
	<path class="st0" d="M3720.9,66.6l162.5,0.9c0,0-302.1,409.3-326.7,442.7c-8,10.8-20.2,22.5-26.3,36.9
		c-15.6,36.3-31.6,115.9-31.6,115.9l-148.7,0.7c0,0,23.1-83,22.2-127.2c-0.8-38.6-20.6-77.2-31.6-115.9
		c-11.2-39.2-26.4-115.9-26.4-115.9H3467l21.1,84.3L3720.9,66.6"/>
	<path class="st0" d="M3413.2,153c30,18.1,48.4,117.8,48.4,117.8s-156.9,2.3-242.3,2.3h-73.8L3056,663h-137
		c0,0,85.3-423.8,105.4-500.6c6.5-24.9,44.7-20.6,109.1-20.6h102.9C3302.9,141.8,3380.6,133.3,3413.2,153 M2775.4,342.9
		c0,0,4.3-25-14.5-54c-16-24.7-30.8-30.5-73-31.8c-119-3.7-116.7,84.5-116.7,84.5L2775.4,342.9z M2904.5,241.9
		c17.4,62.9-15.8,210.8-15.8,210.8s-173.6-2.9-268.8,0c-29.6,0.9-65-3.2-73.8,10.5c-12.4,19.3,4.5,49,18.9,61.5
		c16.5,14.4,48.6,16.1,60.2,17.5c77.2,9.8,238.8,2.5,238.8,2.5l-28,123.9c0,0-228.3,11.5-342.5-15.8c-22.5-5.4-43.7-16.2-58-31.6
		c-3.9-4.2-7.3-10-11-14.9c-2.9-4-11.5-17-15.4-27.3c-26.1-69.5,3.1-202.7,31.6-274c3.3-8.3,7.5-18.8,11.9-27.7
		c5.5-11.1,10.1-23.7,14.5-30.3c2.9-4.6,6.6-7.5,9.6-11.9c3.5-5.1,7.6-10.1,11.4-14.5c10.5-12.2,22.5-20.9,36.9-31.6
		c47.6-35.6,133.7-63.3,237.1-52.7c38.9,4,97.8,17.9,126.5,58C2896.4,205.1,2900.2,226.4,2904.5,241.9L2904.5,241.9z M2276.1,141.3
		l132.9-0.8c0,0-74,351.2-111.8,522.5h-152.8c-106.8,0-201.9,13.2-242.4-63.2c-39.3-74.2-1.8-196.3,15.8-279.3
		c12.4-58.7,38.6-178.7,38.6-178.7l137.6-1.3c0,0-38.9,186.8-55.1,280.1c-5.8,33.4-17.7,64.9-5.3,89.6c11.9,23.5,28.5,25.2,79,26.4
		c16,0.4,68.5,0,68.5,0L2276.1,141.3 M1654.2,394.3c13.9-49.4,34.2-103,31.6-147.6c-2.8-47.6-42.7-91-68.5-100.1
		c-77.6-27.4-150.3,10.9-179.2,42.2c-37.4,40.5-50,87.7-63.2,152.8c-9.8,48.3-17.9,99.3,0,137c31.7,66.6,130.6,52.1,237.1,52.7
		C1627.9,488.9,1641,441.3,1654.2,394.3L1654.2,394.3z M1838.7,199.3c15.2,110.3-43.1,232.1-83.2,338c40.9,3.7,76.7-0.6,79.3,2.5
		c2.7,4-27.4,126.4-37.9,126.7c-32.5,0.8-140,1.7-184.9,1.7c-146.3,0-283.2,9.5-353.1-63.2c-28.4-29.6-48-80.3-52.7-115.9
		c-7.9-59.5,2-125.1,15.8-179.2c12.5-48.8,28.5-94.9,52.7-137c61.5-107.3,168.5-187,347.8-168.6c34.8,3.6,84.7,18.8,115.9,36.9
		c2.2,1.3,9.7,7.3,11.4,8.3C1792.1,76.3,1830.6,140.4,1838.7,199.3L1838.7,199.3z M1191.2,141.9c-8.9,40.3-17.7,86-27,125.8h-147.6
		c11.4-44.2,20.2-88.1,31.6-126.5C1095.4,141.3,1139.3,141.9,1191.2,141.9 M1011.3,304.7h142.3c-18.6,103-55.4,269.1-84.3,384.7
		c-18.1,72.4-30.1,125.2-79,163.4c-4.4,3.4-6.9,1.8-10.5,5.3c-9,8.6-50.7,18.6-73.8,21.1c-37.5,4.1-79.9,0.5-126.1-0.4
		c12.1-44.1,25.7-97.1,36.5-136.6c112.4,13.6,115.2-92.6,137-195C966,488,1004.1,328.4,1011.3,304.7"/>
	<g>
		<path class="st1" d="M679.3,573.4l-3,7.9c-52,101.2-144,163.3-275.3,166c-61.4,1.3-119.9-14.5-158.1-31.6
			C160.4,678.7,91,610,53.1,536.5C-1.2,431.3-11,284.9,102,175.6c1.7,0-13.7,23.7-12,23.7l-3.1,10.1
			C5.5,464.3,256.3,682.7,500.2,657.8C558.8,651.7,633.5,619.7,679.3,573.4"/>
		<path class="st1" d="M531.8,468c61.3,0.4,125.4-28.3,163.4-68.5C661.9,483.8,565.8,538,436.9,520.7
			c-107.9-14.4-210.7-123-221.3-231.9c-7.7-79.2,19.9-126.5,65.3-183.8c-15.8,30-21.7,53.1-23.2,67.9
			C240.5,344.3,394.6,467.1,531.8,468"/>
		<path class="st1" d="M689,255.2c-9.5,21.9-64.4,63.2-88.7,68.3c-96,20.5-157.5-25.1-189.7-76.9c-4.8-7.7-13.6-28.9-15.2-34.2
			c-12.5-42.5-6.8-106.7,30.5-140c-11.2,31.6-12.9,68.3-7,92.2c3.6,14.4,14.5,39.6,25.4,55.5c19.9,28.9,32.5,35.9,58,51.2
			c11.5,6.9,23.8,12.4,29.1,14C555.6,292.5,606.7,311.3,689,255.2"/>
	</g>
</g>
</svg>
